<svg width="38" height="37" viewBox="0 0 38 37" fill="none" xmlns="http://www.w3.org/2000/svg">
<path d="M18.5267 9.25C13.4133 9.25 9.26333 13.394 9.26333 18.5C9.26333 23.606 13.4133 27.75 18.5267 27.75C23.64 27.75 27.79 23.606 27.79 18.5C27.79 13.394 23.64 9.25 18.5267 9.25ZM18.5267 0C8.29994 0 0 8.288 0 18.5C0 28.712 8.29994 37 18.5267 37C28.7534 37 37.0533 28.712 37.0533 18.5C37.0533 8.288 28.7534 0 18.5267 0ZM18.5267 33.3C10.3379 33.3 3.70533 26.677 3.70533 18.5C3.70533 10.323 10.3379 3.7 18.5267 3.7C26.7154 3.7 33.348 10.323 33.348 18.5C33.348 26.677 26.7154 33.3 18.5267 33.3Z" fill="#07020D"/>
</svg>
