<svg width="409" height="718" viewBox="0 0 409 718" fill="none" xmlns="http://www.w3.org/2000/svg">
<path opacity="0.4" fill-rule="evenodd" clip-rule="evenodd" d="M158.675 40.8734C170.217 38.0692 180.777 32.6304 190.639 26.1481C193.323 24.4239 195.087 21.8434 195.872 18.8904C197.121 14.6488 196.442 9.84087 193.823 6.22154C189.12 -0.274114 180.421 -1.15806 173.987 3.06555C173.566 3.36028 173.167 3.57785 172.745 3.87306C169.408 5.8235 166.071 7.77392 162.625 9.52512C160.521 10.4142 158.341 11.2806 156.105 12.0477C147.974 14.4602 139.697 16.4026 131.438 18.3407C127.024 19.3767 122.615 20.4113 118.236 21.5157C107.487 24.2294 96.8352 27.688 86.2785 31.1158L85.4401 31.3876C84.2331 31.7771 83.0241 32.1659 81.8138 32.5549C67.9038 37.0271 53.8188 41.5552 40.5424 47.6694C33.5422 50.9716 26.6732 54.3968 20.1076 58.4979L19.8077 58.6883C14.8424 61.8432 9.43925 65.2758 5.6383 69.8248C1.98308 74.279 -0.244627 79.5728 1.23112 85.3697C1.8287 87.8915 3.18785 90.3862 5.10469 92.1235C6.34276 93.3102 7.73354 94.2749 9.21291 94.9961C9.67444 97.22 10.2641 99.4137 11.0307 101.576C15.1689 113.975 21.0003 125.83 26.7935 137.609C28.1637 140.394 29.5318 143.176 30.8749 145.96L30.8205 145.86C36.6094 158.624 42.1446 171.397 47.0041 184.474C52.0267 197.85 56.673 211.367 61.1424 224.916C62.9808 230.903 64.7194 236.945 66.3583 243.041L68.9251 253.097C70.2606 258.517 73.8674 262.763 79.3383 264.373C86.8128 266.573 94.7382 262.118 96.9939 254.738C98.1148 251.213 97.7759 248.097 96.9657 244.591C96.6036 242.976 95.9649 241.448 95.0043 240.16C92.4148 230.181 89.626 220.31 86.3836 210.558C82.29 198.293 78.0511 186.237 73.5811 174.112C69.3058 162.464 64.4549 151.065 59.3273 139.753C55.294 130.876 51.0715 122.059 46.8599 113.264C45.9774 111.421 45.0954 109.58 44.2158 107.739C41.9283 102.708 39.7406 97.624 37.9291 92.3987C37.7863 92.0498 37.6971 91.6711 37.6134 91.3152C37.5829 91.1855 37.5531 91.0591 37.5217 90.9378C37.6686 90.8921 37.7874 90.8616 37.8929 90.8384C37.9862 90.8178 38.0689 90.8032 38.1519 90.7883C39.2897 90.6204 40.4276 90.4525 41.5428 90.3619C45.7586 90.2621 49.8067 90.4475 53.9862 90.7558L55.5369 90.9206C71.1046 92.5792 86.8219 94.2536 102.208 97.3218C112.413 99.6092 122.208 102.877 132.082 106.172C133.759 106.731 135.439 107.291 137.123 107.848C139.097 108.593 141.069 109.33 143.039 110.067C150.095 112.703 157.125 115.331 164.105 118.302C173.243 122.248 182.212 126.48 191.236 130.811C192.369 131.415 193.502 132.016 194.635 132.618C200.525 135.745 206.406 138.867 212.153 142.245L212.224 142.288C221.029 147.553 229.834 152.818 238.517 158.215C245.237 162.366 251.912 166.669 258.549 170.948C260.1 171.947 261.648 172.946 263.194 173.94C267.866 176.9 272.35 180.109 276.824 183.313C278.973 184.851 281.12 186.389 283.285 187.896C282.957 187.703 282.662 187.493 282.377 187.289C282.165 187.138 281.959 186.991 281.749 186.857L282.825 187.674C293.823 196.019 304.75 204.31 314.954 213.723C322.662 221.102 329.804 228.985 336.623 237.109C342.283 244.053 347.52 251.293 352.359 258.749C356.324 265.195 359.889 271.858 363.132 278.762C366.851 286.895 370.039 295.123 372.906 303.591C374.831 309.855 376.424 316.105 377.718 322.519C378.772 328.611 379.396 334.744 379.743 340.962C379.867 347.367 379.761 353.704 379.323 360.027C378.609 367.861 377.432 375.558 375.77 383.197C373.864 391.098 371.472 398.941 368.695 406.671C368.019 408.399 367.365 410.05 366.69 411.779C359.642 395.041 351.035 378.766 340.051 364.306C327.813 348.136 312.673 331.866 293.437 324.111C275.103 316.705 255.284 315.481 235.904 318.743C217.661 321.837 199.2 328.805 184.16 339.797C167.532 351.913 154.965 368.157 147.56 387.344C140.246 406.223 139.373 426.83 145.219 446.23C150.924 465.254 164.214 480.979 181.215 490.926C199.566 501.689 220.307 508.882 241.117 512.995C260.98 516.914 282.041 518.754 301.97 514.48C321.546 510.27 339.705 499.778 353.767 485.566C354.624 484.645 355.458 483.801 356.316 482.88C356.654 485.996 356.893 489.167 357.078 492.238C357.497 501.913 357.33 511.584 356.579 521.25C355.8 529.12 354.662 536.883 353.123 544.681C353.055 544.941 352.998 545.204 352.964 545.475C352.949 545.531 352.933 545.587 352.916 545.644C350.801 554.825 348.146 563.848 344.951 572.711L344.928 572.788C344.844 573.075 344.721 573.383 344.602 573.704C340.445 584.396 335.76 594.694 330.556 604.84L328.893 607.794C322.984 618.298 317.118 628.727 310.168 638.557C307.088 642.761 303.778 646.898 300.358 650.836C297.343 653.97 294.295 656.928 291.039 659.741C287.33 662.671 283.512 665.401 279.563 668.01C275.006 670.691 270.341 673.172 265.544 675.531C256.916 679.528 248.071 683.125 238.976 686.147C235.657 687.181 232.307 688.038 228.925 688.719C227.157 689.036 225.412 689.277 223.612 689.418C222.765 689.448 221.938 689.41 221.111 689.371C220.699 689.352 220.287 689.333 219.872 689.323C219.464 689.286 219.002 689.15 218.594 689.114C218.037 688.996 217.487 688.855 216.927 688.699C216.457 688.569 215.981 688.429 215.489 688.284C208.014 686.085 200.035 690.44 197.833 697.919C195.632 705.399 200.058 713.405 207.456 715.582L208.303 715.831C214.744 717.559 221.358 718.417 228.04 717.618C236.014 716.697 243.875 714.737 251.356 712.078C258.837 709.419 266.2 706.308 273.562 703.196C287.391 697.462 300.753 689.328 311.912 679.289C324.328 668.112 334.202 654.762 342.879 640.641C354.25 622.202 364.184 602.67 371.675 582.335C373.436 577.49 375.02 572.678 376.35 567.874C384.678 539.574 387.612 509.686 384.54 480.293C383.505 470.437 381.809 460.553 379.559 450.841C382.526 445.598 385.184 440.264 387.711 434.807C405.222 396.64 413.783 353.326 404.563 311.818C402.169 300.891 398.791 290.177 394.56 279.798C390.751 270.55 386.611 261.288 381.728 252.561C371.729 235.039 359.314 218.901 345.452 204.264C329.238 187.091 310.653 172.572 291.441 159.043C278.693 150.012 265.608 141.553 252.279 133.357C245.417 129.075 238.456 124.849 231.472 120.699C224.696 116.694 217.852 112.92 210.909 109.201C197.044 101.685 182.663 95.358 168.136 89.2399C162.988 87.0964 157.764 85.2132 152.539 83.33C150.799 82.7029 149.06 82.0759 147.323 81.439C138.435 78.069 129.256 75.1167 120.118 72.5953C105.488 68.5329 90.4321 66.3657 75.3517 64.622C82.3605 62.1805 89.4262 59.9046 96.4798 57.6322L98.0423 57.1332L100.55 56.3649C112.693 52.6412 124.873 48.9066 137.326 45.9863C144.512 44.3302 151.543 42.6288 158.675 40.8734ZM352.969 545.456C353.02 545.198 353.072 544.939 353.123 544.681C353.175 544.479 353.234 544.279 353.293 544.08C353.214 544.349 353.159 544.605 353.105 544.862C353.063 545.058 353.021 545.254 352.969 545.456ZM352.969 545.456L352.962 545.49L352.964 545.475L352.969 545.456ZM169.863 415.693C170.172 412.935 170.635 410.222 171.121 407.433C171.498 405.868 171.952 404.326 172.351 402.684C172.805 401.142 173.236 399.676 173.767 398.157C175.074 394.855 176.535 391.598 178.15 388.386C179.919 385.22 181.919 382.122 183.974 379.123C185.702 376.95 187.506 374.801 189.388 372.673C191.647 370.405 193.959 368.237 196.426 366.114C198.848 364.145 201.301 362.353 203.908 360.607C207.091 358.611 210.283 356.869 213.629 355.172C218.258 353.099 222.973 351.302 227.797 349.706C231.823 348.544 235.88 347.56 239.969 346.752C244.113 346.045 248.266 345.59 252.35 345.368C255.804 345.295 259.29 345.4 262.754 345.581C265.841 345.903 269.036 346.424 272.132 347C274.798 347.617 277.341 348.365 279.861 349.191C281.95 350.057 283.962 350.901 286.007 351.921C288.291 353.264 290.575 354.607 292.814 356.103C295.841 358.335 298.646 360.752 301.429 363.247C305.48 367.12 309.232 371.157 312.817 375.48C316.967 380.723 320.895 386.152 324.525 391.745C329.091 399.092 333.139 406.602 336.858 414.405C340.939 423.327 344.656 432.386 347.667 441.708C348.152 443.191 348.613 444.751 349.075 446.312C348.037 447.849 346.975 449.464 345.937 451.002C343.125 454.867 340.104 458.587 336.776 462.215C333.882 465.218 330.758 468.153 327.525 470.888C324.582 473.207 321.508 475.402 318.379 477.498C315.663 479.045 312.97 480.514 310.223 481.884C307.543 483.023 304.809 484.062 302.021 485.001C299.931 485.559 297.941 486.062 295.874 486.543C291.299 487.292 286.793 487.809 282.178 488.127C276.439 488.281 270.791 488.128 265.057 487.697C257.813 486.99 250.705 485.82 243.611 484.319C235.253 482.278 226.985 479.929 218.877 477.04C213.079 474.831 207.405 472.491 201.789 469.665C197.9 467.515 194.134 465.233 190.513 462.744C189.55 461.985 188.611 461.234 187.687 460.472C186.982 459.89 186.284 459.301 185.591 458.698C183.851 456.929 182.111 455.16 180.493 453.26C179.424 451.772 178.432 450.307 177.44 448.842C176.438 447.123 175.569 445.526 174.744 443.775C173.92 442.024 173.195 440.219 172.57 438.359C171.841 435.715 171.189 433.093 170.637 430.417C170.239 427.786 169.918 425.178 169.774 422.538C169.693 420.252 169.767 418.011 169.863 415.693Z" fill="#DCCBC2"/>
</svg>
