<svg width="814" height="625" viewBox="0 0 814 625" fill="none" xmlns="http://www.w3.org/2000/svg">
<path opacity="0.4" d="M414.03 260.657C470.564 216.406 545.25 195.187 631.523 195.729C667.94 195.946 705.093 199.283 740.088 190.656C775.111 182.034 808.448 157.87 812.971 124.439C818.499 83.3999 779.413 47.2527 738.215 30.3295C651.576 -5.25085 546.656 -16.8775 466.445 36.7636C403.974 78.5268 366.448 149.489 299.803 184.934C235.284 219.261 151.804 215.493 92.6252 257.608C61.451 279.789 40.4034 312.708 25.3091 346.975C3.96704 395.512 -6.72207 449.994 5.71743 501.669C18.1532 553.371 56.7055 601.324 109.75 617.481C248.801 659.833 291.724 489.42 319.973 400.608C339.098 340.534 371.408 294.044 414.03 260.657Z" fill="#DCCBC2"/>
</svg>
