<svg width="671" height="683" viewBox="0 0 671 683" fill="none" xmlns="http://www.w3.org/2000/svg">
<path opacity="0.4" d="M364.186 -281.354C374.283 -210.926 407.808 -146.334 441.267 -83.5736C474.725 -20.8126 509.181 43.0796 521.388 113.186C533.608 183.279 519.793 262.056 468.301 311.247C367.43 407.587 192.687 371.356 74.9205 439.788C37.0089 461.809 5.19051 499.034 1.17182 542.668C-4.45892 603.708 47.2659 658.814 106.239 675.402C165.213 691.989 228.466 678.295 286.429 658.325C330.95 642.988 374.2 623.965 415.609 601.535C467.776 573.252 519.973 538.62 579.224 535.902C654.337 532.463 677.592 568.572 686.326 616.227L1086.88 178.882L419.995 -431.909L364.786 -371.628C360.261 -341.765 359.896 -311.291 364.186 -281.354Z" fill="#DCCBC2"/>
</svg>
